<?xml version="1.0" encoding="UTF-8" standalone="no"?>
<!-- Created with Inkscape (http://www.inkscape.org/) -->

<svg
   width="156.50037mm"
   height="158.70045mm"
   viewBox="0 0 156.50037 158.70045"
   version="1.1"
   id="svg1"
   xml:space="preserve"
   xmlns="http://www.w3.org/2000/svg"
   xmlns:svg="http://www.w3.org/2000/svg"><defs
     id="defs1" /><g
     id="layer1"
     transform="translate(-8.7259886,-21.081489)"><g
       id="g1"
       transform="translate(-146.74891,-81.184081)"><rect
         style="fill:#00ffff;stroke-width:0.232586"
         id="rect24"
         width="5.2325611"
         height="14.565902"
         x="-300.20203"
         y="185.48816"
         transform="scale(-1,1)" /><rect
         style="fill:#00ffff;stroke-width:0.232586"
         id="rect25"
         width="6.1046543"
         height="6.6208644"
         x="-291.04504"
         y="187.69511"
         transform="scale(-1,1)" /><rect
         style="fill:#00ffff;stroke-width:0.232586"
         id="rect26"
         width="4.796514"
         height="11.034773"
         x="-310.23111"
         y="198.2885"
         transform="scale(-1,1)" /><rect
         style="fill:#00ffff;stroke-width:0.232586"
         id="rect27"
         width="4.3604674"
         height="3.9725189"
         x="-310.23111"
         y="218.15111"
         transform="scale(-1,1)" /><rect
         style="fill:#00ffff;stroke-width:0.232586"
         id="rect28"
         width="7.4127946"
         height="15.890076"
         x="-300.63806"
         y="216.38553"
         transform="scale(-1,1)" /><rect
         style="fill:#00ffff;stroke-width:0.232586"
         id="rect29"
         width="3.9244208"
         height="20.745375"
         x="-311.97528"
         y="231.8342"
         transform="scale(-1,1)" /><rect
         style="fill:#00ffff;stroke-width:0.232586"
         id="rect30"
         width="2.6162806"
         height="17.214247"
         x="-303.6904"
         y="235.80673"
         transform="scale(-1,1)" /><rect
         style="fill:#00ffff;stroke-width:0.232586"
         id="rect31"
         width="4.796514"
         height="6.1794734"
         x="-289.73691"
         y="212.8544"
         transform="scale(-1,1)" /><rect
         style="fill:#00ffff;stroke-width:0.232586"
         id="rect32"
         width="5.6686077"
         height="15.007293"
         x="-290.60901"
         y="223.88918"
         transform="scale(-1,1)" /><rect
         style="fill:#00ffff;stroke-width:0.232586"
         id="rect33"
         width="3.9244208"
         height="22.95233"
         x="-298.02179"
         y="238.01369"
         transform="scale(-1,1)" /><path
         style="fill:#f9f9f9;stroke-width:0.264583"
         d="m 234.56487,169.86896 c -1.19149,0.37737 -5.9741,-0.46543 -6.90499,0 -0.96826,0.48414 -2.36283,2.28509 -2.70195,3.30238 -0.3207,0.96214 -0.90064,1.31671 -0.90064,2.40173"
         id="path169" /><path
         style="fill:#f9f9f9;stroke-width:0.264583"
         d="m 197.93847,187.58173 c -2.65723,-0.31169 -5.45806,0.37825 -8.10583,0 -1.88581,-0.2694 -3.57235,-1.43499 -5.4039,-1.8013 -0.39251,-0.0785 -0.82113,0.12658 -1.20086,0 -0.31097,-0.10366 -0.60283,-0.45152 -0.90064,-0.60043 -0.17902,-0.0895 -0.45892,0.14152 -0.60045,0 -0.11229,-0.11229 -0.11229,-2.58967 0,-2.70195 0.0708,-0.0708 0.22945,0.0708 0.30022,0 0.14153,-0.14152 -0.14152,-0.45891 0,-0.60043 0.0708,-0.0708 0.22945,0.0708 0.30023,0 0.0795,-0.0795 0,-0.77703 0,-0.90065 0,-0.96504 0.77962,-3.54442 0.30019,-4.50325 -0.61288,-1.22576 -1.44007,-2.75812 -1.80128,-4.20303 -0.0486,-0.19416 0.0633,-0.41055 0,-0.60043 -0.0448,-0.13426 -0.20016,-0.20014 -0.30022,-0.30021 -0.10007,-0.20015 -0.22945,-0.38815 -0.30023,-0.60044 -0.0316,-0.0949 0,-0.20014 0,-0.30021 0,-0.20015 0.0633,-0.41056 0,-0.60044 -0.38587,-1.15764 -1.8833,-1.66512 -2.40173,-2.70194 -0.0447,-0.0895 0.0708,-0.22946 0,-0.30022 -0.12581,-0.1258 -0.71868,-0.20924 -0.90064,-0.30022 -0.57689,-0.28845 -0.92419,-0.91241 -1.50108,-1.20086 -0.73941,-0.36971 0.27101,0.87145 -0.90065,-0.30022 -0.0708,-0.0708 0.0708,-0.22945 0,-0.30021 -0.13877,-0.13878 -0.7194,0.0906 -0.90064,0 -0.78372,-0.39187 -1.62375,-0.51166 -2.40175,-0.90065 -0.32023,-0.16012 -0.88062,0.16011 -1.20087,0 -2.00451,-1.00226 -4.03947,-2.07464 -5.10368,-4.20303 -0.27633,-0.55271 -0.62428,-0.0477 -0.90063,-0.60043 -0.32535,-0.65069 -0.94036,-1.28028 -1.20087,-1.8013 -0.0895,-0.17902 0.0895,-0.42142 0,-0.60044 -0.30355,-0.60711 -0.60458,-1.20916 -0.90065,-1.80129 -0.31343,-0.62687 -0.58721,-0.574 -0.90065,-1.20087 -0.0895,-0.17901 0.14153,-0.45891 0,-0.60043 -0.008,-0.008 -1.15513,-0.64616 -0.60043,-1.20087 0.0795,-0.0795 0.77703,0 0.90065,0 1.19371,0 3.7593,-0.34805 4.80347,0 0.635,0.21168 1.50427,0.90065 2.10151,0.90065 0.84722,0 1.38901,0.84462 2.10151,1.20087 0.39571,0.19785 1.10569,0.33683 1.50108,0.60043 0.0833,0.0555 -0.0708,0.22946 0,0.30022 0.7951,0.79511 0.73422,0.35079 1.50109,1.50108 0.811,1.21651 2.12238,2.12935 3.00215,3.30238 1.24179,1.65571 2.44636,3.3693 3.60259,5.10368 0.12184,0.18275 1.43838,1.73858 1.50109,1.80129 0.15824,0.15823 0.4422,0.14199 0.60044,0.30022 0.5342,0.53421 0.83677,1.30306 1.50109,1.8013 0.96202,0.72153 1.97382,1.28713 3.00215,1.8013 0.64206,0.32103 1.75207,1.36819 2.40173,1.80129 0.37237,0.24825 0.88442,0.28398 1.20086,0.60044 0.15825,0.15823 0.142,0.4422 0.30022,0.60043 0.41262,0.41261 1.08847,0.48804 1.50109,0.90065 0.31644,0.31645 0.35219,0.82849 0.60042,1.20086 0.23095,0.34641 0.66971,0.55425 0.90067,0.90065 1.06275,1.59416 1.79636,3.28761 2.40173,5.10368 0.16621,0.49867 -0.23556,1.33021 0,1.8013 0.17483,0.34971 0.42555,0.55093 0.60042,0.90065 0.0895,0.17901 -0.0895,0.42142 0,0.60043 0.18012,0.36026 0.72051,0.54039 0.90064,0.90065 0.28305,0.56609 0.36539,1.21365 0.60044,1.8013 z"
         id="path170" /><path
         style="fill:#f9f9f9;stroke-width:0.264583"
         d="m 181.72679,180.67675 c -1.79348,-1.56327 -3.51613,-3.08742 -5.4039,-4.50324 -0.58952,-0.44215 -1.40269,-1.26815 -2.10151,-1.50109 -0.18986,-0.0633 -0.41055,0.0633 -0.60042,0 -0.55914,-0.18637 -1.27434,-0.63716 -1.80131,-0.90064 -0.25315,-0.12659 -0.34726,-0.47385 -0.60044,-0.60044 -0.0895,-0.0447 -0.22945,0.0708 -0.3002,0 -0.0708,-0.0708 0.0708,-0.22945 0,-0.30021 -0.17402,-0.17401 -1.02687,-0.42643 -1.20086,-0.60044 -0.0708,-0.0708 0.0708,-0.22945 0,-0.30021 -0.1001,-0.10007 -0.80058,-0.20015 -0.90067,-0.30022 -0.36566,-0.36566 -0.14063,-0.67075 -0.60042,-0.90065 -0.4141,-0.20705 -0.26855,0.36358 -0.60045,-0.30021 -0.0447,-0.0895 0.0708,-0.22946 0,-0.30022 -0.0708,-0.0708 -0.22944,0.0708 -0.30019,0 -0.0708,-0.0708 0.0447,-0.21071 0,-0.30022 -0.12661,-0.25316 -0.47387,-0.34726 -0.60045,-0.60043 -0.15875,-0.3175 0.15875,-0.28293 0,-0.60043 -0.28101,-0.56201 -0.62523,-1.25049 -0.90064,-1.8013 -0.0712,-0.1425 -0.88186,-1.48227 -0.90067,-1.50108 -0.0708,-0.0708 -0.22944,0.0708 -0.30019,0 -0.0708,-0.0708 0.0707,-0.22946 0,-0.30022 -0.0708,-0.0708 -0.22947,0.0708 -0.30023,0 -0.0708,-0.0708 0.0708,-0.22945 0,-0.30021 -0.0708,-0.0708 -0.22945,0.0708 -0.30021,0 -0.62116,-0.62116 0.94921,0.0243 -0.30022,-0.60044 -0.0895,-0.0447 -0.22946,0.0708 -0.30022,0 -0.0708,-0.0708 0.0708,-0.22945 0,-0.30021 -0.29611,-0.29611 -1.28229,-0.0814 -1.50108,-0.30022 -0.0708,-0.0708 0.0708,-0.22946 0,-0.30022 -0.14152,-0.14152 -0.42142,0.0895 -0.60043,0 -0.70165,-0.35082 -1.40173,-0.55075 -2.10151,-0.90065 -0.17902,-0.0895 -0.45892,0.14153 -0.60044,0 -0.12017,-0.12016 -0.16259,-0.38151 -0.60043,-0.60043 -0.0895,-0.0447 -0.22946,0.0708 -0.30022,0 -0.0708,-0.0708 0.0708,-0.22945 0,-0.30021 -0.62116,-0.62116 0.0243,0.94921 -0.60043,-0.30022 -0.13723,-0.27447 -0.74903,-1.64968 -0.90065,-1.8013 -0.0708,-0.0708 -0.22945,0.0708 -0.30021,0 -0.21229,-0.21228 0.0949,-0.61584 0,-0.90065 -0.0448,-0.13426 -0.23693,-0.17363 -0.30022,-0.30021 -0.29941,-0.59882 0,-3.92687 0,-4.80347 0,-0.33346 -0.21229,-1.88922 0,-2.10151 0.0163,-0.0163 0.88438,-0.58417 0.90065,-0.60043 0.0708,-0.0708 -0.0708,-0.22946 0,-0.30022 0.0708,-0.0708 0.22945,0.0708 0.30021,0 0.0708,-0.0708 -0.0708,-0.22945 0,-0.30021 0.12581,-0.12581 0.7187,-0.20925 0.90065,-0.30022 0.36026,-0.18013 0.54039,-0.72052 0.90065,-0.90065 0.15632,-0.0782 5.99209,-0.31247 6.00434,-0.30022 0.0707,0.0708 -0.0708,0.22946 0,0.30022 0.10006,0.10007 0.80057,0.20014 0.90064,0.30022 0.1501,0.1501 0.1501,0.45032 0.30022,0.60043 0.10007,0.10007 0.80058,0.20014 0.90064,0.30022 0.0708,0.0708 -0.0708,0.22945 0,0.30021 0.0708,0.0708 0.21072,-0.0447 0.30022,0 0.42053,0.21028 0.86562,0.86562 1.20087,1.20087 0.67844,0.67844 1.97641,1.55111 2.40173,2.40173 0.18354,0.36711 0.25096,0.55116 0.60042,0.90065 0.30906,0.30905 0.59161,0.29138 0.90067,0.60043 0.50209,0.50209 0.58213,0.8915 1.20086,1.20086 1.03367,0.51684 1.11241,1.90719 2.10151,2.40174 0.0895,0.0447 0.20015,0 0.30022,0 0.20013,0.20014 0.40029,0.40028 0.60042,0.60043 0.65704,0.65703 1.40298,1.6051 1.80131,2.40173 0.18013,0.36026 0.72051,0.54039 0.90064,0.90065 0.0448,0.0895 -0.0708,0.22945 0,0.30021 0.0164,0.0163 0.88439,0.58417 0.90064,0.60044 0.62116,0.62116 -0.94919,-0.0243 0.30022,0.60043 1.43333,0.71666 2.64867,2.52519 3.6026,3.00216 0.0895,0.0448 0.22947,-0.0708 0.30022,0 0.15822,0.15823 0.142,0.44221 0.30022,0.60043 0.54295,0.54295 1.56964,0.66901 2.10151,1.20087 0.44505,0.44504 0.75583,1.35626 1.20086,1.8013 0.15822,0.15823 0.4422,0.14199 0.60045,0.30022 1.17165,1.17166 -0.0695,0.16122 0.30019,0.90064 0.12661,0.25317 0.47387,0.34727 0.60045,0.60044 0.0906,0.18126 -0.13878,0.76187 0,0.90065 0.12581,0.1258 0.71869,0.20924 0.90064,0.30021 0.4576,0.22879 0.64961,0.82429 0.90067,1.20087 0.28392,0.42589 0.67093,0.37071 0.90064,0.60043 0.18444,0.18444 0.19833,0.6996 0.60042,0.90065 0.0895,0.0447 0.22947,-0.0708 0.30022,0 0.0996,0.0996 0.51181,1.0236 0.60045,1.20086 0.26172,0.5235 1.578,1.83977 2.1015,2.10152 0.0895,0.0447 0.22945,-0.0708 0.30023,0 0.16764,0.16765 0.43865,0.89287 0.90064,1.20086 0.19375,0.12918 1.07085,0.47042 1.20086,0.60044 0.0708,0.0708 -0.0895,0.25546 0,0.30021 0.17902,0.0895 0.42143,-0.0895 0.60045,0 0.0585,0.0293 0.23505,0.53529 0.30019,0.60043 0.0533,0.0533 0.6875,0.38726 0.90067,0.60044 0.59473,-0.03 0.14198,0.4422 0.3002,0.60043 0.0708,0.0708 0.22947,-0.0708 0.30022,0 0.25053,0.25053 0,2.37013 0,2.70195 0,0.37883 0.0402,3.86263 0,3.90281 -0.13443,0.13445 -1.39491,0.83292 -1.80128,0.90065 -1.04312,0.17385 -2.27465,-0.25694 -3.3024,0 -2.11217,0.52804 -4.41132,0.30022 -6.60477,0.30022 -0.28469,0 -1.61999,0.18129 -1.80128,0 -0.0708,-0.0708 0.0708,-0.22946 0,-0.30022 -0.0708,-0.0708 -0.22945,0.0708 -0.30022,0 -0.0708,-0.0708 0.0708,-0.22945 0,-0.30022 -0.0708,-0.0708 -0.21072,0.0448 -0.30023,0 -0.16912,-0.0846 -0.80234,-1.00428 -0.90064,-1.20086 -0.19476,-0.38954 -0.39764,-0.79529 -0.60042,-1.20087 -0.0895,-0.17901 0.14153,-0.45891 0,-0.60043 -0.0708,-0.0708 -0.22947,0.0708 -0.30022,0 -0.14152,-0.14152 0.14153,-0.45891 0,-0.60043 -0.0708,-0.0708 -0.22945,0.0708 -0.30022,0 -0.14153,-0.14153 0.14152,-0.45891 0,-0.60043 -0.0708,-0.0708 -0.22945,0.0708 -0.30022,0 -0.23212,-0.23213 -0.11184,-1.31271 -0.3002,-1.50109 -0.0708,-0.0708 -0.22947,0.0708 -0.30022,0 -0.14153,-0.14152 0.14152,-0.45891 0,-0.60043 -0.0708,-0.0708 -0.22948,0.0708 -0.30023,0 -0.14152,-0.14152 0.14153,-0.45891 0,-0.60043 -0.0708,-0.0708 -0.22944,0.0708 -0.30022,0 -0.10006,-0.10007 -0.20013,-0.80058 -0.30019,-0.90065 -0.15013,-0.15011 -0.45035,-0.15011 -0.60045,-0.30022 -0.10007,-0.10007 -0.20016,-0.80057 -0.30022,-0.90065 -0.0708,-0.0708 -0.22945,0.0708 -0.30023,0 -0.38105,-0.38106 0.35944,-1.01907 0.60045,-1.50108 z"
         id="path171" /><path
         style="fill:#f9f9f9;stroke-width:0.264583"
         d="m 172.42007,171.67026 c -0.32848,1.45966 0.87199,1.71527 1.20089,2.70195 0.14484,0.43455 0.10277,0.80599 0.3002,1.20086 0.12658,0.25317 0.51094,0.33192 0.60044,0.60044 0.0633,0.18987 -0.0895,0.42142 0,0.60043 0.0447,0.0895 0.22945,-0.0708 0.30023,0 0.0708,0.0708 -0.0448,0.21071 0,0.30021 0.14507,0.29015 0.91072,1.0558 1.20086,1.20087 0.0895,0.0447 0.22945,-0.0708 0.3002,0 0.0708,0.0708 -0.0708,0.22946 0,0.30022 0.19044,0.19043 0.95091,-0.12498 1.20086,0 0.81254,0.40626 1.06685,0.0554 1.80131,0.30021 0.13425,0.0448 0.16595,0.25547 0.30022,0.30022 0.79942,0.26647 1.60229,0.33396 2.40173,0.60043 0.47739,0.15914 0.7447,0.67257 1.20087,0.90065 0.0895,0.0447 0.22944,-0.0708 0.30022,0 0.0708,0.0708 -0.0708,0.22946 0,0.30022 0.0708,0.0708 0.21069,-0.0448 0.3002,0 0.19333,0.0967 0.48344,0.96689 0.60044,1.20086 0.18952,0.37903 -0.28821,1.5131 0,1.8013 0.0708,0.0708 0.22945,-0.0708 0.30022,0 0.1501,0.15011 0.1501,0.45033 0.3002,0.60043 0.2037,0.2037 0.92612,-0.13737 1.20086,0 0.56055,0.28027 0.81431,0.30022 1.50109,0.30022"
         id="path172" /><path
         style="fill:#f9f9f9;stroke-width:0.264583"
         d="m 177.22356,174.67242 c 0.41952,1.18251 -0.48758,6.53031 0,7.50541 0.43926,0.87855 4.15522,1.15308 4.20301,1.20087 0.0708,0.0708 -0.0708,0.22945 0,0.30021 0.25228,0.25229 2.82334,-0.23952 3.30239,0 0.63733,0.31867 0.97129,1.20087 1.50106,1.20087"
         id="path173" /><path
         style="fill:#f9f9f9;stroke-width:0.264583"
         d="m 215.95146,180.07632 c 4.30308,0 8.60619,0 12.90929,0 2.68018,0 5.28973,0.20719 7.50541,-0.90065 0.37743,-0.18871 1.4446,-0.27198 2.10153,-0.60043 0.23707,-0.11854 0.64746,0.0844 0.90064,0 0.66583,-0.22195 1.23222,-0.31591 1.80129,-0.60044 0.48035,-0.24017 1.32095,0.24018 1.80131,0 0.87516,-0.43758 1.95109,-0.30021 3.00214,-0.30021 0.43852,0 4.45543,-0.0478 4.50326,0 0.0708,0.0708 -0.0708,0.22945 0,0.30021 0.14153,0.14153 0.42143,-0.0895 0.60042,0 0.43347,0.21673 0.76743,0.38371 1.20087,0.60044 0.24019,0.12008 0.66048,-0.12009 0.90067,0 0.19216,0.0961 1.07862,0.4782 1.20086,0.60043 0.0708,0.0708 -0.0708,0.22945 0,0.30022 0.14153,0.14152 0.45889,-0.14153 0.60042,0 0.0708,0.0708 -0.0708,0.22945 0,0.30021 0.17402,0.17401 1.02687,0.42643 1.20086,0.60044 0.0708,0.0708 -0.0707,0.22945 0,0.30021 0.14153,0.14152 0.45892,-0.14152 0.60045,0 0.1501,0.15011 0.1501,0.45033 0.30022,0.60043 0.10007,0.10008 0.80058,0.20015 0.90064,0.30022 0.0707,0.0708 -0.0708,0.22945 0,0.30022 0.007,0.008 1.80729,0.50236 2.10151,0.60043 1.24817,0.41606 2.19461,0.94719 3.3024,1.50108 0.17899,0.0895 0.41055,-0.0633 0.60041,0 0.61244,0.20414 0.98605,0.64313 1.50109,0.90065 0.30787,0.15393 0.893,0.14629 1.20087,0.30022 0.3497,0.17485 0.55094,0.42557 0.90064,0.60043 0.17901,0.0895 0.45892,-0.14152 0.60044,0 0.0707,0.0708 -0.0708,0.22945 0,0.30022 0.27366,0.27368 2.27193,0 2.70195,0 0.41659,0 1.40965,0.19582 1.80129,0 0.17235,-0.0862 2.0833,-1.46464 2.1015,-1.50109 0.0448,-0.0895 -0.0707,-0.22945 0,-0.30021 0.0708,-0.0708 0.22948,0.0708 0.30023,0 0.0708,-0.0708 -0.0707,-0.22946 0,-0.30022 0.0708,-0.0708 0.22944,0.0708 0.30022,0 0.25789,-0.25788 0,-2.04092 0,-2.40173 0,-0.3662 0.17338,-1.45455 0,-1.8013 -0.12658,-0.25316 -0.47384,-0.34726 -0.60045,-0.60043 -0.0447,-0.0895 0.0708,-0.22946 0,-0.30022 -0.0707,-0.0708 -0.22944,0.0708 -0.30019,0 -0.14153,-0.14152 0.0895,-0.42141 0,-0.60043 -0.17487,-0.34971 -0.42558,-0.55093 -0.60045,-0.90065 -0.0895,-0.17901 0.0895,-0.42142 0,-0.60043 -0.25813,-0.51625 -0.34232,-0.98483 -0.60042,-1.50108 -0.0906,-0.18126 0.13878,-0.76187 0,-0.90065 -0.0708,-0.0708 -0.22947,0.0708 -0.30022,0 -0.18177,-0.18177 0,-1.58266 0,-1.8013 0,-1.67546 -0.10557,-3.48057 0.30022,-5.10368 0.17256,-0.69028 0.60042,-2.01414 0.60042,-2.70194 0,-0.43477 0.19026,-1.42079 0,-1.8013 -0.12657,-0.25317 -0.47384,-0.34727 -0.60042,-0.60044 -0.18237,-0.36472 -0.10707,-0.95418 -0.60044,-1.20086 -0.20548,-0.10274 -0.7244,-0.24797 -0.90064,-0.60043 -0.0448,-0.0895 0.0708,-0.22946 0,-0.30022 -0.0708,-0.0708 -0.22948,0.0708 -0.30023,0 -0.0707,-0.0708 0.0708,-0.22945 0,-0.30022 -0.28043,-0.28042 -1.22065,-0.32 -1.50108,-0.60043 -0.0707,-0.0708 0.0708,-0.22945 0,-0.30021 -0.1501,-0.15011 -0.75055,0.1501 -0.90065,0 -0.0707,-0.0708 0.0707,-0.22946 0,-0.30022 -0.21248,-0.21247 -4.54702,-0.30022 -5.10368,-0.30022 -0.33345,0 -1.88923,-0.21228 -2.1015,0 -0.0708,0.0708 0.0707,0.22946 0,0.30022 -0.0708,0.0708 -0.20016,0 -0.30022,0 -0.10007,0.10007 -0.2153,0.187 -0.30023,0.30022 -0.21648,0.28865 -0.34528,0.64551 -0.60042,0.90064 -0.18444,0.18445 -0.69961,0.19834 -0.90066,0.60044 -0.15942,0.31883 -0.0326,0.93324 -0.3002,1.20086 -0.0708,0.0708 -0.22947,-0.0708 -0.30022,0 -0.0708,0.0708 0.0707,0.22946 0,0.30022 -0.0708,0.0708 -0.22945,-0.0708 -0.30023,0 -0.0707,0.0708 0.0708,0.22945 0,0.30021 -0.0707,0.0708 -0.21695,-0.0555 -0.30022,0 -0.35324,0.23551 -0.60042,0.60044 -0.90064,0.90065 -0.3538,0.35381 -0.54684,0.84706 -0.90064,1.20087 -0.72702,0.36351 -0.4422,0.14199 -0.90064,0.60043 -0.29888,0.29887 -0.21701,0.70893 -0.60045,0.90065 -0.0895,0.0447 -0.22945,-0.0708 -0.30022,0 -0.0708,0.0708 0.0708,0.22945 0,0.30022 -0.12102,0.12104 -0.74496,0.19644 -0.90064,0.30021 -0.23551,0.15701 -0.36492,0.44343 -0.60045,0.60044 -0.16653,0.11102 -0.4214,-0.0895 -0.60042,0 -0.25315,0.12658 -0.34726,0.47385 -0.60044,0.60043 -0.4749,0.23745 -6.57006,0.11164 -6.90497,0 -0.21227,-0.0708 -0.38814,-0.22946 -0.60044,-0.30022 -0.18987,-0.0633 -0.45889,0.14153 -0.60042,0 -0.0708,-0.0708 0.0708,-0.22945 0,-0.30021 -0.23963,-0.23963 -1.18613,0.15748 -1.50109,0 -0.12657,-0.0633 -0.17362,-0.23693 -0.30022,-0.30022 -0.24995,-0.12498 -1.01042,0.19043 -1.20086,0 -0.1441,-0.14411 -0.41434,-1.01478 -0.60042,-1.20086 -0.0708,-0.0708 -0.22945,0.0708 -0.30023,0 -0.14152,-0.14153 0.14153,-0.45891 0,-0.60044 -0.0708,-0.0708 -0.22944,0.0708 -0.30022,0 -0.0708,-0.0708 0.0448,-0.21071 0,-0.30021 -0.20103,-0.4021 -0.7162,-0.41599 -0.90064,-0.60044 -0.0708,-0.0708 0.0708,-0.22945 0,-0.30021 -0.0708,-0.0708 -0.22945,0.0708 -0.30022,0 -0.0708,-0.0708 0.0708,-0.22946 0,-0.30022 -0.12108,-0.12108 -1.47479,-0.13696 -1.80129,-0.30022 -0.4473,-0.22364 -1.02391,-0.74159 -1.50108,-0.90065 -0.28483,-0.0949 -0.63215,0.13426 -0.90065,0 -0.55805,-0.27901 -0.92829,-0.91446 -1.50108,-1.20086 -0.0895,-0.0447 -0.22945,0.0708 -0.30023,0 -0.0707,-0.0708 0.0708,-0.22945 0,-0.30022 -0.11985,-0.11985 -1.92637,-0.0876 -2.1015,0 -0.29784,0.14892 -0.58968,0.49678 -0.90067,0.60044 -0.18986,0.0633 -0.41055,-0.0633 -0.60042,0 -0.52856,0.17618 -1.02666,0.88459 -1.50109,1.20086 -0.77242,0.51496 -1.33913,1.29306 -2.1015,1.8013 -0.42246,0.28163 -1.23172,0.49658 -1.50109,0.90065 -0.61476,0.92214 -1.92045,1.7394 -2.40173,2.70194 -0.0447,0.0895 0.0708,0.22946 0,0.30022 -0.62116,0.62116 0.0243,-0.94921 -0.60044,0.30022 -0.0895,0.17901 0.0895,0.42142 0,0.60043 -0.18013,0.36026 -0.72052,0.54039 -0.90064,0.90065 -0.36971,0.73942 0.87145,-0.27102 -0.30023,0.90065 -0.0708,0.0708 -0.22944,-0.0708 -0.30019,0 -0.12581,0.1258 -0.20926,0.7187 -0.30023,0.90065 -0.14491,0.28984 -0.76964,1.67028 -0.90064,1.8013 -0.0708,0.0708 -0.22947,-0.0708 -0.30022,0 -0.0695,0.0695 -0.56719,1.10109 -0.60045,1.20086 -0.075,0.2249 -0.2292,1.12986 -0.30019,1.20087 -0.0708,0.0708 -0.22947,-0.0708 -0.30022,0 -0.27451,0.27449 0.12305,1.73232 0,2.10151 -0.21231,0.63686 -0.65133,1.17801 -0.90065,1.8013 z"
         id="path174" /><path
         style="fill:#f9f9f9;stroke-width:0.264583"
         d="m 159.21057,151.25555 c -0.18297,-0.11059 -0.48324,-1.98432 -0.60044,-2.10151 -0.12017,-0.12017 -0.38151,-0.1626 -0.60043,-0.60044 -0.0895,-0.17901 0.14152,-0.45891 0,-0.60043 -0.0708,-0.0708 -0.22946,0.0708 -0.30022,0 -0.14152,-0.14152 0.14153,-0.45891 0,-0.60043 -0.0708,-0.0708 -0.22945,0.0708 -0.30021,0 -0.15721,-0.15721 -0.0688,-2.63318 0,-2.70195 0.25591,-0.25591 1.7706,0.0827 2.10151,0 1.08751,-0.27188 2.61912,-0.0725 3.30238,-0.30022 1.30033,-0.43344 3.53666,-0.73232 4.20303,0.60044 0.15783,0.31567 0,1.14048 0,1.50108 0,1.53581 -3.84291,3.05023 -5.10368,3.30238 -0.19626,0.0393 -0.41056,-0.0633 -0.60043,0 -0.13426,0.0447 -0.16596,0.25546 -0.30022,0.30022 -0.18987,0.0633 -0.4339,-0.11103 -0.60043,0 -0.47102,0.31401 -0.80058,0.80057 -1.20086,1.20086 z"
         id="path175" /><path
         style="fill:#f9f9f9;stroke-width:0.264583"
         d="m 161.01186,160.26204 c 0.20593,0.67494 -0.32268,5.38143 0,5.70411 0.0753,0.0753 6.2301,0 6.90498,0"
         id="path176" /></g></g><g
     id="g176"
     transform="matrix(0.89997152,0,0,0.89997152,-10.913745,-26.469467)"><path
       style="fill:#f9f9f9;stroke-width:0.503439"
       d="m 71.927422,120.07129 v -2.5172 h -2.5172 -2.51719 v -2.5172 -2.51719 h -2.26548 -2.26548 v -2.26548 -2.26548 h -2.51719 -2.5172 v -2.5172 -2.51719 h -2.5172 -2.5172 v -2.5172 -2.517204 h -2.51719 -2.5172 v -2.5172 -2.51719 h -2.5172 -2.51719 v -2.56579 -2.565784 l -2.51751,0.174451 -2.51751,0.174447 2.6e-4,-2.391338 2.6e-4,-2.391336 h -2.51719 c -2.84097,0 -3.13926,-0.553619 -1.6535,-3.06882 0.67447,-1.141788 1.22598,-1.462135 2.5172,-1.462135 1.64857,0 1.65349,-0.0075 1.65349,-2.517198 v -2.517196 h 2.5172 2.5172 v -2.517198 -2.517195 h 2.51719 2.5172 v -2.206763 c 0,-2.375561 0.55619,-2.805396 3.64994,-2.820757 1.30419,-0.0065 1.38446,-0.138216 1.38446,-2.272353 v -2.265476 h 2.44332 2.44333 l 0.32559,-3.851754 c 0.44066,-5.212998 0.41193,-6.217036 -0.17785,-6.217036 -0.27689,0 -0.50344,1.019466 -0.50344,2.265479 v 2.265476 h -2.51719 -2.5172 v 2.517198 2.517195 h -2.26548 c -2.2012,0 -2.26548,-0.04459 -2.26548,-1.571603 0,-1.002475 1.13107,-3.554849 3.12335,-7.048154 l 3.12336,-5.476544 h 4.17652 4.17651 v 2.265476 c 0,1.246013 -0.22654,2.265477 -0.50343,2.265477 -0.2769,0 -0.50344,1.132739 -0.50344,2.517198 0,1.384459 0.22654,2.517198 0.50344,2.517198 0.27689,0 0.50343,-1.132739 0.50343,-2.517198 v -2.517198 h 4.99245 c 3.5017,0 5.08013,-0.187907 5.28611,-0.629299 0.23494,-0.503438 0.35241,-0.503438 0.58735,0 0.16152,0.346115 1.04347,0.629299 1.95989,0.629299 1.65018,0 2.63101,1.034285 1.97991,2.087803 -0.16542,0.267642 -0.16184,1.040114 0.008,1.716606 0.26992,1.075431 0.59217,1.229987 2.56459,1.229987 h 2.25589 v 2.517196 2.517198 h 2.51719 2.5172 v 2.265476 2.265479 h 2.5172 2.5172 v 2.517195 2.517199 h 2.26547 2.26548 v 2.517195 2.517198 h 2.48961 2.489618 l 0.15344,2.391336 0.15344,2.391339 2.39134,0.153442 2.39134,0.153445 v 7.020568 7.020569 h -2.26548 -2.26548 v -2.5172 -2.517195 h -2.517188 -2.5172 v -2.265479 -2.265476 h -2.5172 -2.51719 v -2.517198 -2.517196 h -2.5172 -2.5172 v -2.517198 -2.517195 h -2.26548 -2.26547 V 70.98594 68.720464 h -2.5172 -2.5172 V 66.203265 63.68607 h -2.51719 -2.5172 v -2.517198 -2.517199 h -2.5172 -2.5172 v -1.762037 c 0,-0.969121 -0.22654,-1.762038 -0.50343,-1.762038 -0.2769,0 -0.50344,-0.33982 -0.50344,-0.755158 0,-0.415337 -0.22655,-0.75516 -0.50344,-0.75516 -0.2769,0 -0.50344,0.339823 -0.50344,0.75516 0,0.415338 -0.22655,0.755158 -0.50344,0.755158 -0.27689,0 -0.50344,-0.33982 -0.50344,-0.755158 0,-0.415337 -0.22655,-0.75516 -0.50344,-0.75516 -0.27689,0 -0.50344,0.339823 -0.50344,0.75516 0,0.415338 -0.22655,0.755158 -0.50344,0.755158 -0.27689,0 -0.50344,0.906193 -0.50344,2.013757 v 2.01376 h 2.26548 2.26548 v 2.265476 2.265479 h 2.51719 2.5172 v 2.517195 2.517199 h 2.5172 2.51719 v 2.517195 2.517198 h 2.5172 2.5172 v 2.517196 2.517198 h 2.51719 2.5172 v 2.517198 2.517196 h 2.5172 2.5172 v 2.265479 2.265476 h 2.26547 2.26548 v 2.517196 2.5172 h 2.5172 2.517198 v 2.26548 2.26547 h -2.206768 c -2.37556,0 -2.80539,0.55619 -2.82076,3.649944 -0.006,1.30419 -0.13821,1.38446 -2.27235,1.38446 h -2.26547 v 2.51719 2.5172 h -2.5172 -2.5172 v 2.2379 2.23789 l -2.39134,0.15344 -2.39133,0.15344 -0.15345,2.39134 -0.15344,2.39134 h -2.48961 -2.48962 v 2.5172 2.5172 h -2.26547 -2.26548 z M 59.844882,51.603523 c 0,-1.384459 -0.22655,-2.517198 -0.50344,-2.517198 -0.27689,0 -0.50344,1.132739 -0.50344,2.517198 0,1.384459 0.22655,2.517198 0.50344,2.517198 0.27689,0 0.50344,-1.132739 0.50344,-2.517198 z"
       id="path34" /><path
       style="fill:#f9f9f9;stroke-width:0.256818"
       d="m 32.899373,78.265358 c -0.249592,-0.09984 -0.323085,-2.566617 -0.330287,-11.085973 l -0.0093,-10.957567 2.128014,-5.885762 2.128015,-5.88576 0.06668,12.227359 0.06667,12.227361 0.994251,0.07885 0.994225,0.07885 -2.647738,4.616627 c -1.456249,2.539143 -2.742639,4.63863 -2.858638,4.665528 -0.115999,0.02689 -0.355365,-0.0089 -0.531926,-0.07951 z"
       id="path36" /><path
       style="fill:#f9f9f9;stroke-width:0.256818"
       d="m 42.338503,53.717843 v -9.43806 h 2.182944 2.182945 v 5.619012 5.619011 l -2.181886,3.819049 -2.18186,3.819049 z"
       id="path37" /><path
       style="fill:#f9f9f9;stroke-width:0.256818"
       d="m 91.64649,61.363071 c 0,-2.389791 -0.01191,-2.437894 -0.648811,-2.597719 -0.356844,-0.08956 -1.512544,-0.0819 -2.568178,0.01701 l -1.919367,0.179859 V 56.500543 54.03886 h 2.568178 2.568178 v -2.439771 -2.43977 h 2.43975 2.439775 v -2.439771 -2.43977 h 2.439776 2.439779 v -2.439771 -2.43977 l 3.91647,-0.0028 c 2.15405,-0.0016 4.34985,-0.07446 4.87955,-0.162012 l 0.96305,-0.159186 v 5.041553 5.041553 h -2.43977 -2.43978 v 2.439771 2.43977 h -2.43975 -2.43977 v 2.439771 2.43977 h -2.439779 -2.439776 v 2.439771 2.43977 H 94.08624 91.64649 Z"
       id="path38" /><path
       style="fill:#f9f9f9;stroke-width:0.256818"
       d="m 57.147285,37.923539 c 0.388567,-0.670939 1.007612,-1.739943 1.375621,-2.375567 0.643017,-1.110599 0.721069,-1.158708 2.000912,-1.233308 l 1.33178,-0.07762 v 2.45319 2.453193 h -2.707402 -2.707428 z"
       id="path39" /><path
       style="fill:#f9f9f9;stroke-width:0.256818"
       d="m 64.102757,44.088889 -1.990355,-0.08753 -0.0026,-0.952264 c 0,-0.523746 -0.07512,-1.558997 -0.164174,-2.30056 l -0.161952,-1.348293 h 2.475548 2.475547 v 2.43977 c 0,1.808168 -0.0831,2.426391 -0.321045,2.388087 -0.176557,-0.02842 -1.21666,-0.09107 -2.311347,-0.13921 z"
       id="path40" /><path
       style="fill:#f9f9f9;stroke-width:0.256818"
       d="m 47.21697,41.711602 v -2.31136 h 4.395443 4.395444 l -0.37219,0.577839 c -0.204708,0.317812 -0.805788,1.357927 -1.335722,2.311363 l -0.96356,1.733521 H 50.276691 47.21697 Z"
       id="path41" /><path
       style="fill:#f9f9f9;stroke-width:0.256818"
       d="m 39.592075,36.833186 c 0.762264,-2.14965 0.868309,-2.310318 1.525481,-2.311363 l 0.706253,-0.0011 v 2.311361 2.311363 h -1.525482 -1.525482 z"
       id="path42" /><path
       style="fill:#f9f9f9;stroke-width:0.138628"
       d="m 28.526972,78.496091 c 0.667145,-0.0254 1.758839,-0.0254 2.425986,0 0.667147,0.0254 0.121301,0.0462 -1.212993,0.0462 -1.334293,0 -1.880139,-0.0208 -1.212993,-0.0462 z"
       id="path43" /><path
       style="fill:#f9f9f9;stroke-width:0.138628"
       d="m 27.383292,80.955983 v -2.356676 h 2.356673 2.356673 v 1.254112 c 0,1.237253 -0.0085,1.268931 -0.635958,2.356673 l -0.635957,1.102564 h -1.720715 -1.720716 z"
       id="path44" /><path
       style="fill:#f9f9f9;stroke-width:0.138628"
       d="m 40.711289,66.434713 c 0.688287,-1.200864 1.277329,-2.209382 1.308999,-2.24115 0.03164,-0.03177 0.05755,0.950756 0.05755,2.183389 v 2.24115 h -1.308973 -1.308999 z"
       id="path45" /><path
       style="display:inline;fill:#333333;fill-opacity:1;stroke-width:0.879067"
       d="m 61.873322,29.41145 -0.0509,2.40034 -0.0509,2.40034 -9.80614,0.0469 -9.80615,0.0469 v -2.4472 -2.44721 l -19.70352,53.985093 h 2.37172 2.37172 v 7.3369 7.33689 h -2.37172 -2.37172 z m -4.93647,100.54268 v -2.35505 h 7.38882 7.38881 v 2.35505 2.35505 h -7.38881 -7.38882 z m 79.178928,-4.89126 v -2.35505 h 4.92588 4.92587 v -2.44564 -2.44563 h 2.37172 2.37172 c 0.59075,6.18476 0.12729,4.1883 0,4.80068 v 4.80069 h -7.29759 -7.2976 z m -64.401298,0 v -2.35505 h 2.46295 2.46294 v 2.35505 2.35505 h -2.46294 -2.46295 z m -19.70351,0 v -2.35505 h 2.46294 2.46294 v 2.35505 2.35505 h -2.46294 -2.46294 z m 74.070618,-4.89127 v -2.35505 h 4.92588 4.92587 v 2.35505 2.35506 h -4.92587 -4.92588 z m -32.257268,1.94745 c -0.0375,-0.19341 0.0506,-0.31703 0.22568,-0.31703 0.15786,0 0.28703,0.12228 0.28703,0.27174 0,0.18324 0.18461,0.27174 0.56684,0.27174 0.44193,0 0.54243,-0.0632 0.4561,-0.28656 -0.0609,-0.1576 -0.11074,-0.35558 -0.11074,-0.43995 0,-0.34891 -0.6134,-0.72276 -1.18586,-0.72276 -0.72019,0 -1.10992,0.33125 -1.27666,1.08509 l -0.12063,0.54534 h -8.01286 -8.01285 v -2.34994 -2.34995 l 2.50854,-0.0504 2.50855,-0.0504 0.0407,-2.26447 c 0.0224,-1.24547 0.0429,-2.32562 0.0456,-2.40035 0.003,-0.0747 1.07221,-0.13587 2.37666,-0.13587 h 2.37172 v 2.44563 2.44564 h 7.38881 7.388818 v 2.35881 2.3588 l -3.692038,-0.0491 c -3.34836,-0.0445 -3.69774,-0.0785 -3.75339,-0.36607 z m -27.03571,-1.94745 v -2.35505 h 2.46293 2.46294 v 2.35505 2.35506 h -2.46294 -2.46293 z m -19.08536,1.9307 c -0.33998,-0.29037 -0.45835,-0.5239 -0.37495,-0.73969 0.16038,-0.41502 0.56217,-0.27153 0.63606,0.22715 0.0485,0.32724 0.17893,0.39342 0.77538,0.39342 0.63813,0 0.71707,-0.0486 0.71707,-0.4411 0,-0.82447 -0.34382,-1.38022 -1.02998,-1.66491 -0.36708,-0.1523 -0.82304,-0.23649 -1.01324,-0.18711 -0.31265,0.0812 -0.34062,-0.004 -0.29155,-0.89393 0.0299,-0.54107 -0.99022,-1.64644 -0.91496,-1.6453 0.0752,8.9e-4 2.26911,0.66563 3.52339,0.66563 h 2.2805 v 2.23428 c 0,1.22885 -0.0547,2.28863 -0.12163,2.35505 -0.0669,0.0664 -0.92435,0.12078 -1.90545,0.12078 -1.60771,0 -1.83286,-0.0419 -2.28064,-0.42435 z m 93.338408,-14.24945 v -9.782517 h -5.0171 -5.01709 v 2.445627 2.44564 h -2.46824 -2.46824 l 0.0509,-2.40035 0.0509,-2.400347 2.34502,-0.0339 c 1.28976,-0.0187 2.38319,-0.0718 2.42987,-0.11813 0.0467,-0.0463 0.0997,-1.13163 0.11792,-2.41176 l 0.033,-2.3275 7.34321,-0.0473 7.34321,-0.0473 v 12.230227 12.23021 h -2.37172 -2.37172 z m -39.58947,7.42749 v -2.35506 h 12.3147 12.3147 v 2.35506 2.35505 h -12.3147 -12.3147 z m -39.589458,0 v -2.35506 h 2.46294 2.46294 v 2.35506 2.35505 h -2.46294 -2.46294 z m -19.70352,0.0115 v -2.34357 l 0.59293,-0.0568 c 0.32611,-0.0312 1.39339,-0.031 2.37172,5.6e-4 l 1.77879,0.0573 v 2.34301 2.34303 h -2.37172 -2.37172 z m 44.51534,-4.90274 v -2.35506 h 2.37172 2.37172 v 2.35506 2.35505 h -2.37172 -2.37172 z m -29.7377,0.0151 c 0,-1.36932 0.0743,-2.365 0.17912,-2.40035 0.0985,-0.0332 1.20685,-0.0354 2.46294,-0.004 l 2.28382,0.0556 v 2.3447 2.3447 h -2.46295 -2.46293 z m -19.70351,-0.10566 v -2.44564 h 2.37171 2.37172 v 2.44564 2.44563 h -2.37172 -2.37171 z m 74.070608,-4.8007 v -2.35504 h 7.38882 7.38882 v 2.35504 2.35506 h -7.38882 -7.38882 z m -19.703508,0 v -2.35504 h 2.37171 2.37172 v 2.35504 2.35506 h -2.37172 -2.37171 z m -39.58947,0 v -2.35504 h 2.46294 2.46294 v 2.35504 2.35506 h -2.46294 -2.46294 z m -19.70352,-0.0779 v -2.43299 l 2.37172,-0.002 2.37172,-0.002 v 2.43491 2.43491 h -2.37172 -2.37172 z m 74.070618,-4.7937 c 0,-2.760107 -0.22982,-2.556807 2.82782,-2.501537 l 2.00684,0.0363 0.0302,2.261247 c 0.0166,1.24368 -0.009,2.32383 -0.0564,2.40034 -0.0476,0.0765 -1.14901,0.1391 -2.44753,0.1391 h -2.36095 z m -9.811438,-0.0649 0.0509,-2.400347 2.05736,-0.0378 c 1.13155,-0.0208 2.178288,0.008 2.326108,0.0647 0.21748,0.0829 0.26875,0.54801 0.26875,2.438077 v 2.33567 h -2.377018 -2.37701 z m -49.44123,0 0.0509,-2.400347 2.3261,-0.0507 c 2.23073,-0.0487 2.3264,-0.0357 2.33313,0.31702 0.004,0.20225 0.007,1.2237 0.007,2.269887 0,1.04619 -0.004,1.98367 -0.007,2.08332 -0.004,0.11114 -0.92565,0.18115 -2.38403,0.18115 h -2.37702 z m -19.74382,-0.0453 v -2.445627 h 2.37172 2.37171 v 2.445627 2.44564 h -2.37171 -2.37172 z m 74.070608,-4.891257 v -2.44564 h 2.37172 2.37172 v 2.44564 2.44563 h -2.37172 -2.37172 z m -59.292978,0 v -2.44564 h 2.37172 2.37172 v 2.44564 2.44563 h -2.37172 -2.37172 z m 64.218858,-9.7878 v -7.34215 l 2.41733,0.0505 2.41733,0.0506 0.0477,7.29162 0.0477,7.2916 h -2.46501 -2.46501 z m -9.851758,4.89653 v -2.44564 h 2.37172 2.371718 l 0.0167,0.58877 c 0.0734,2.59164 0.0787,3.88302 0.0169,4.07606 -0.0531,0.16572 -0.70332,0.22644 -2.424748,0.22644 h -2.3522 z m -59.32816,0.17786 c -0.0308,-1.24727 -0.0287,-2.3478 0.004,-2.44563 0.0356,-0.10409 1.03832,-0.17787 2.41733,-0.17787 h 2.35652 v 2.44564 2.44563 h -2.36129 -2.3613 z m 54.40229,-5.06913 v -2.44563 h -2.46295 -2.46294 v -2.44563 -2.44563 h 2.36643 2.36642 l 0.0509,2.40034 0.0509,2.40034 2.41733,0.0505 2.41733,0.0506 v 2.44038 2.44036 h -2.37172 -2.37171 z m -59.43511,0.0453 0.0509,-2.40035 2.41733,-0.0506 2.41733,-0.0505 v 2.45088 2.45089 h -2.46824 -2.46824 z m -4.78375,-4.93656 v -2.44563 h 2.37172 2.37171 v 2.44563 2.44564 h -2.37171 -2.37172 z m 74.359188,-2.55559 c -0.2425,-0.0924 -0.28858,-0.48293 -0.28858,-2.44563 v -2.33568 h 2.37172 2.37172 v 2.44563 2.44564 h -2.08314 c -1.14573,0 -2.213,-0.0494 -2.37172,-0.10996 z m -19.776718,-0.051 c -0.155,-0.0951 -0.29743,-2.93685 -0.22573,-4.50386 0.008,-0.16903 0.61186,-0.22646 2.38209,-0.22646 h 2.37171 v 2.33996 c 0,1.70024 -0.0624,2.36608 -0.22806,2.43549 -0.32693,0.13695 -4.06728,0.0977 -4.30001,-0.0451 z m -49.6118,-19.5131 -0.0464,-19.58349 2.06527,-0.034 c 1.13589,-0.0187 2.20353,0.0187 2.37253,0.0831 0.28456,0.10842 0.30727,1.20009 0.30727,14.77149 v 14.65442 h 2.46294 2.46293 v 2.35505 2.35506 l -1.23147,0.0332 c -0.6773,0.0182 -1.7651,0.0386 -2.41732,0.0453 l -1.18586,0.0121 -0.0508,2.49629 -0.0508,2.4963 -2.32092,-0.0507 -2.32093,-0.0507 z m 64.17406,12.23563 v -2.34408 h 2.37172 2.371718 v 2.34177 c 0,2.01559 -0.0412,2.34993 -0.29609,2.40034 -0.16285,0.0322 -1.230128,0.0333 -2.371718,0.003 l -2.07563,-0.0563 z m -19.72631,0.55445 c -0.0125,-0.99637 -0.033,-2.03576 -0.0456,-2.30976 l -0.0228,-0.49819 2.41733,-0.0505 2.41732,-0.0506 v 2.36032 2.3603 h -2.37172 -2.37172 z m -34.64079,-15.22274 c 0,-7.75089 0.0643,-12.12364 0.17899,-12.16232 0.0985,-0.0332 1.16572,-0.0352 2.37172,-0.004 l 2.19273,0.0559 v 7.32625 7.32624 h 2.46294 2.46294 v 2.3498 2.3498 l -2.41733,0.0506 -2.41733,0.0505 -0.0508,2.39406 -0.0508,2.39406 -1.86477,0.0516 c -1.02561,0.0284 -2.09052,0.0219 -2.36646,-0.0142 l -0.50171,-0.0659 z m 49.44123,9.78789 v -2.35505 h 2.37171 2.37172 v 2.35505 2.35505 h -2.37172 -2.37171 z m -19.88596,0 v -2.35505 h 2.46295 2.46294 v 2.35505 2.35505 h -2.46294 -2.46295 z m 24.81183,-4.89126 v -2.35506 h 2.37172 2.371718 v 2.35506 2.35505 h -2.371718 -2.37172 z m -9.85176,0.0117 v -2.34339 l 1.87001,-0.057 c 1.02851,-0.0313 2.09129,-0.0316 2.36173,-5.9e-4 l 0.49172,0.0563 0.0556,2.3443 0.0556,2.34429 -2.41733,-3.2e-4 -2.41733,-3.1e-4 z m -19.88594,-0.0117 v -2.35506 h 2.46293 2.46294 v 2.35506 2.35505 h -2.46294 -2.46293 z m 34.663578,-4.89127 v -2.35505 h 2.37172 2.37172 v 2.35505 2.35505 h -2.37172 -2.37172 z m -19.703508,0 v -2.35505 h 2.37173 2.37171 v 2.35505 2.35505 h -2.37171 -2.37173 z m -19.88595,0.72463 v -1.63042 h 0.54731 c 0.51692,0 0.54732,-0.0402 0.54732,-0.72464 0,-0.60385 0.0608,-0.72462 0.36488,-0.72462 0.30407,0 0.36489,0.12077 0.36489,0.72462 v 0.72464 h 0.72976 0.72975 v -0.72464 c 0,-0.52333 0.076,-0.72462 0.27366,-0.72462 0.19765,0 0.27366,0.20129 0.27366,0.72462 0,0.68438 0.0304,0.72464 0.54732,0.72464 h 0.54733 v 1.63042 1.63042 h -2.46294 -2.46294 z m -9.85176,-0.72463 v -2.35505 h 2.46294 2.46294 v 2.35505 2.35505 h -2.46294 -2.46294 z m 34.66358,-4.90134 v -2.34498 h 2.37172 2.37172 l 3.2e-4,2.40034 3.2e-4,2.40035 -2.37203,-0.0554 -2.37205,-0.0554 z m 19.703518,0.0101 v -2.35505 h 2.44632 2.44633 l -0.0161,2.35505 -0.0161,2.35506 h -2.43025 -2.43025 z m -29.375648,1.49456 c -0.3504,-1.13813 -0.36494,-1.50483 -0.0642,-1.61941 0.32412,-0.12351 0.31773,-0.81151 -0.0148,-1.60196 l -0.26435,-0.62824 h 2.45363 2.45363 v 2.35505 2.35506 h -2.14945 -2.14945 z m -15.86945,-1.49456 c 0,-2.24785 0.0169,-2.35505 0.3713,-2.35505 0.31055,0 0.3404,0.0573 0.18244,0.35041 -0.10388,0.19272 -0.18887,1.2525 -0.18887,2.35506 0,1.21566 -0.0718,2.00464 -0.18243,2.00464 -0.11228,0 -0.18244,-0.90579 -0.18244,-2.35506 z m -2.18928,0 c 0,-2.23427 0.0187,-2.35505 0.36488,-2.35505 0.34617,0 0.36487,0.12078 0.36487,2.35505 0,2.23429 -0.0187,2.35506 -0.36487,2.35506 -0.34618,0 -0.36488,-0.12077 -0.36488,-2.35506 z m -2.00684,0 c 0,-1.9726 0.0445,-2.35505 0.27366,-2.35505 0.22922,0 0.27366,0.38245 0.27366,2.35505 0,1.97262 -0.0445,2.35506 -0.27366,2.35506 -0.22923,0 -0.27366,-0.38244 -0.27366,-2.35506 z m 54.409728,-7.38219 0.0486,-4.84597 2.05167,-0.0286 c 3.11893,-0.0433 2.78299,-0.63981 2.78299,4.94093 v 4.77956 h -2.46592 -2.46592 z m -19.746138,2.49092 v -2.35505 h 2.37171 2.37172 v 2.35505 2.35507 h -2.37172 -2.37171 z m -18.60887,1.67093 v -0.68413 l -0.72977,0.0691 c -0.69441,0.0657 -0.72975,0.0989 -0.72975,0.68413 v 0.61503 h -4.83996 -4.83996 l 0.0509,-2.37536 0.0509,-2.37536 2.41733,0.0292 2.41733,0.0292 v -2.54512 -2.54512 h -2.46294 -2.46294 V 36.74835 34.30272 h 2.46294 2.46294 v 2.44563 2.445633 h 2.17435 c 1.1959,0 2.30423,0.0494 2.46295,0.10996 0.24326,0.0927 0.28858,0.4909 0.28858,2.53621 v 2.42625 h 2.46294 2.46294 v 2.35506 2.35505 h -1.8244 -1.8244 z m 23.57506,-6.60748 0.0509,-2.40034 h 2.2805 2.280488 l 0.0509,2.40034 0.0509,2.40034 h -2.382308 -2.38231 z m -49.44123,0 0.0509,-2.40034 7.02324,-0.0167 c 3.86277,-0.009 7.16721,0.0207 7.3432,0.0664 0.28412,0.0738 0.31998,0.34463 0.31998,2.41701 v 2.33393 h -7.39412 -7.39412 z M 101.45219,36.74541 v -2.44859 l 4.88027,0.0482 4.88027,0.0483 0.0222,2.26447 c 0.0122,1.245473 -0.0132,2.325623 -0.0564,2.400353 -0.0433,0.0747 -2.24931,0.13586 -4.90245,0.13586 h -4.8239 z m -64.218848,0.003 v -2.44563 h 2.37171 2.37172 v 2.44563 2.445633 h -2.37172 -2.37171 z"
       id="path1" /></g></svg>
