<svg xmlns="http://www.w3.org/2000/svg" viewBox="0 0 512 512">
  <g fill="#FC9563">
    <!-- Top petal -->
    <path d="M256 40 
             C210 80, 190 130, 200 180 
             C230 170, 282 170, 312 180 
             C322 130, 302 80, 256 40 Z"></path>

    <!-- Upper left -->
    <path d="M140 140 
             C90 160, 60 210, 70 260 
             C110 250, 160 260, 190 290 
             C190 230, 170 180, 140 140 Z"></path>

    <!-- Upper right -->
    <path d="M372 140 
             C342 180, 322 230, 322 290 
             C352 260, 402 250, 442 260 
             C452 210, 422 160, 372 140 Z"></path>

    <!-- Center left -->
    <path d="M190 290 
             C150 310, 120 350, 130 400 
             C180 380, 220 390, 256 420 
             C240 360, 220 320, 190 290 Z"></path>

    <!-- Center right -->
    <path d="M322 290 
             C292 320, 272 360, 256 420 
             C292 390, 332 380, 382 400 
             C392 350, 362 310, 322 290 Z"></path>

    <!-- Bottom petal -->
    <path d="M256 420 
             C230 450, 230 480, 256 500 
             C282 480, 282 450, 256 420 Z"></path>
  </g>
</svg>